#N canvas 167 317 737 560 10;
#X floatatom -167 119 0 0 0 0 - - -;
#X obj -168 143 tgl 15 1 empty empty empty 17 7 0 10 -262144 -1 -1
1 1;
#X obj -168 205 tgl 15 0 empty empty empty 17 7 0 10 -262144 -1 -1
1 1;
#X text -152 205 recep;
#X obj -166 8 cnv 15 700 80 empty empty RADIOGRAPHIE 10 20 0 30 -1
-228856 0;
#X obj -166 41 cnv 15 20 20 empty empty cb_nm_v0.1_/_rurart 10 20 0
12 -1 -228856 0;
#X obj -26 147 nbx 8 30 -1e+37 1e+37 0 1 freq_prin empty MHz 100 20
1 20 -262144 -1 -1 55 256;
#X obj -22 185 hsl 400 15 0 127 0 0 fad_freq_fine in_fad_freq_fine
f::-240kHz -2 8 0 10 -262144 -1 -1 0 1;
#X msg 47 106 15;
#X msg 86 112 29;
#X msg 121 111 50.7;
#X msg 156 112 53;
#X msg 192 114 133;
#X msg -3 108 98.34;
#X msg -44 111 33;
#X text 241 285 line gnuradio;
#X text 241 301 gestion frequences;
#X obj -24 247 nbx 5 14 -1e+37 1e+37 0 1 disp_power empty empty 0 -8
0 10 -262144 -1 -1 4 256;
#X text 33 248 display : power;
#X obj -24 267 nbx 5 14 -1e+37 1e+37 0 1 disp_scale empty empty 0 -8
0 10 -262144 -1 -1 15 256;
#X text 33 268 display : scale;
#X text 240 265 rendu freq_fine;
#X msg 302 105 34.16;
#X msg 302 130 41.34;
#X msg 302 154 24.76;
#X msg 357 103 73;
#X obj -26 205 nbx 10 14 -1e+37 1e+37 0 0 empty freq_finale empty 0
-8 0 10 -262144 -1 -1 5.47591e+07 256;
#X msg 208 139 96.4;
#X msg 247 130 86.9;
#X msg 366 135 67.94;
#X text -21 324 a partir de 21MHZ;
#X msg 351 239 30.83;
#X msg 365 278 49.151;
#X msg 395 170 63.5;
#X msg 399 246 49.949;
#X msg 379 428 81.648;
#X msg 458 250 115.2;
#X msg 203 434 137;
#X text 201 379 bande;
#X msg 198 399 174;
#X text 432 429 bip;
#X text 271 373 pas mal;
#X msg 274 400 200.68;
#X text -11 403 JUSQUA 211;
#N canvas 311 440 821 329 autres_radios 0;
#X obj 620 21 loadbang;
#X msg 620 50 \; pd dsp 1;
#N canvas 52 117 592 433 Hann-window 0;
#N canvas 0 0 450 300 (subpatch) 0;
#X array hann 128 float 0;
#X coords 0 1 127 0 200 120 1;
#X restore 293 249 graph;
#X msg 171 263 0;
#X obj 65 312 osc~;
#X obj 65 264 samplerate~;
#X obj 65 335 *~ -0.5;
#X obj 65 358 +~ 0.5;
#X text 279 241 1;
#X text 272 359 0;
#X text 288 372 0;
#X obj 57 241 bng 15 250 50 0 empty empty empty 0 -6 0 8 -262144 -1
-1;
#X text 336 221 Hann window;
#X text 113 310 period 512;
#X text 90 215 recalculate Hann;
#X text 125 230 window table;
#X obj 57 146 loadbang;
#X msg 79 179 \; pd dsp 1;
#X text 40 27 The Hann window is now recomputed on 'loadbang' to make
the file smaller (it doesn't have to be saved with the array.);
#X text 474 375 511;
#X obj 57 383 tabwrite~ hann;
#X obj 65 288 / 128;
#X connect 1 0 2 1;
#X connect 2 0 4 0;
#X connect 3 0 19 0;
#X connect 4 0 5 0;
#X connect 5 0 18 0;
#X connect 9 0 3 0;
#X connect 9 0 1 0;
#X connect 9 0 18 0;
#X connect 14 0 9 0;
#X connect 14 0 15 0;
#X connect 19 0 2 0;
#X restore 692 58 pd Hann-window;
#X obj 112 26 loadbang;
#X obj 111 67 loadbang;
#X obj 103 118 loadbang;
#X obj 103 158 loadbang;
#X obj 103 200 loadbang;
#X obj 108 248 loadbang;
#X obj 319 24 loadbang;
#X obj 318 65 loadbang;
#X obj 310 116 loadbang;
#X obj 310 156 loadbang;
#X msg 112 86 197 0 0;
#X msg 103 138 272 0 0;
#X msg 103 177 244 0 0;
#X msg 103 221 207 0 0;
#X msg 108 268 205 0 0;
#X msg 319 44 198 0 0;
#X msg 318 85 189 0 0;
#X msg 310 136 207 0 0;
#X msg 311 175 208 0 0;
#X obj 47 46 radios 0;
#X msg 112 46 289 70 0;
#X obj 254 137 radios 8;
#X obj 48 269 radios 5;
#X obj 48 86 radios 1;
#X obj 47 219 radios 4;
#X obj 46 139 radios 2;
#X obj 48 178 radios 3;
#X obj 254 44 radios 6;
#X obj 255 84 radios 7;
#X obj 255 176 radios 9;
#X connect 0 0 1 0;
#X connect 3 0 23 0;
#X connect 4 0 13 0;
#X connect 5 0 14 0;
#X connect 6 0 15 0;
#X connect 7 0 16 0;
#X connect 8 0 17 0;
#X connect 9 0 18 0;
#X connect 10 0 19 0;
#X connect 11 0 20 0;
#X connect 12 0 21 0;
#X connect 13 0 26 0;
#X connect 14 0 28 0;
#X connect 15 0 29 0;
#X connect 16 0 27 0;
#X connect 17 0 25 0;
#X connect 18 0 30 0;
#X connect 19 0 31 0;
#X connect 20 0 24 0;
#X connect 21 0 32 0;
#X connect 22 0 23 0;
#X connect 23 0 22 0;
#X connect 24 0 20 0;
#X connect 25 0 17 0;
#X connect 26 0 13 0;
#X connect 27 0 16 0;
#X connect 28 0 14 0;
#X connect 29 0 15 0;
#X connect 30 0 18 0;
#X connect 31 0 19 0;
#X connect 32 0 21 0;
#X restore -168 316 pd autres_radios;
#X obj 435 322 table fft 2048;
#X text -54 449 - largeur differente;
#X text -53 471 - selection de piste;
#X text -52 490 - trouver une freq de base;
#X text -54 433 - cpu!!;
#X text -54 420 - faire les niveaux de chaque bande;
#N canvas 314 122 582 537 spectrogram__ 0;
#N canvas 296 176 651 574 reverb 0;
#X obj 164 40 gemhead;
#X obj 295 199 t b;
#X msg 295 222 snap;
#X obj 379 307 loadbang;
#X obj 274 357 pix_texture;
#X msg 379 327 quality 0;
#X obj 164 18 tgl 15 0 empty empty empty 17 7 0 10 -262144 -1 -1 0
1;
#X obj 356 69 r \$0-speed;
#X msg 437 495 1 1 1;
#X obj 274 450 color 0 0 0;
#X obj 438 384 t b;
#X obj 438 410 delay 10;
#X msg 493 420 0;
#X obj 437 464 t a b;
#X obj 438 442 spigot 1;
#X obj 356 115 + 0.02;
#X obj 356 90 / 1000;
#X obj 274 76 r gemhead50;
#X obj 295 173 r gemhead52;
#X obj 438 360 r gemhead53;
#X obj 66 423 scaleXYZ 2.66667 1 1;
#X obj 53 280 pix_snap 0 0 2048 768;
#X obj 274 286 pix_snap 0 0 2048 768;
#X obj 274 483 scaleXYZ 1 1 1;
#X floatatom 370 515 5 0 0 0 - - -;
#X obj 274 520 rectangle 4 4;
#X obj 274 141 translateXYZ 0 0.02 0;
#X connect 1 0 2 0;
#X connect 2 0 22 0;
#X connect 3 0 5 0;
#X connect 4 0 9 0;
#X connect 5 0 4 0;
#X connect 6 0 0 0;
#X connect 7 0 16 0;
#X connect 8 0 9 1;
#X connect 9 0 23 0;
#X connect 10 0 11 0;
#X connect 11 0 14 0;
#X connect 12 0 14 1;
#X connect 13 0 8 0;
#X connect 13 1 12 0;
#X connect 14 0 13 0;
#X connect 15 0 26 2;
#X connect 16 0 15 0;
#X connect 17 0 26 0;
#X connect 18 0 1 0;
#X connect 19 0 10 0;
#X connect 22 0 4 0;
#X connect 23 0 25 0;
#X connect 24 0 25 1;
#X connect 26 0 22 0;
#X restore 30 220 pd reverb;
#X obj 164 166 vradio 15 1 1 3 empty empty empty 0 -8 0 10 -262144
-1 -1 0;
#X obj 164 222 send \$0-zoom;
#X text 325 118 on/off;
#X obj 162 131 send \$0-speed;
#X obj 165 100 hsl 128 15 0 127 0 0 empty empty empty -2 -8 0 10 -262144
-1 -1 0 1;
#X text 163 147 y scale;
#N canvas 320 122 860 662 draw 0;
#X obj 114 87 gemhead 56;
#X obj 114 394 text2d;
#X obj 132 145 loadbang;
#X msg 147 170 11;
#X obj 114 597 curve 2;
#X msg 191 568 6 0 0;
#X obj 133 525 loadbang;
#X obj 114 496 alpha 1;
#X obj 114 469 colorRGB 1 1 1 0.5;
#X obj 114 432 gemhead 56;
#X obj 114 113 translateXYZ -5.5 0.15 0;
#X msg 133 566 -6 0 0;
#X obj 324 87 gemhead 56;
#X obj 324 394 text2d;
#X obj 342 145 loadbang;
#X msg 357 170 11;
#X obj 324 597 curve 2;
#X obj 343 525 loadbang;
#X obj 324 496 alpha 1;
#X obj 324 469 colorRGB 1 1 1 0.5;
#X obj 324 432 gemhead 56;
#X msg 132 193 text 11000Hz;
#X msg 343 566 -6 -2 0;
#X msg 401 568 6 -2 0;
#X obj 324 112 translateXYZ -5.5 -1.85 0;
#X obj 534 87 gemhead 56;
#X obj 534 394 text2d;
#X obj 552 145 loadbang;
#X msg 567 170 11;
#X obj 534 597 curve 2;
#X obj 553 525 loadbang;
#X obj 534 496 alpha 1;
#X obj 534 469 colorRGB 1 1 1 0.5;
#X obj 534 432 gemhead 56;
#X obj 534 112 translateXYZ -5.5 2.15 0;
#X msg 342 193 text 5500Hz;
#X msg 552 193 text 16500Hz;
#X msg 553 566 -6 2 0;
#X msg 611 568 6 2 0;
#X obj 164 230 r \$0-zoom;
#X obj 164 262 sel 0 1 2;
#X msg 164 341 text \$1Hz;
#X msg 164 284 11050;
#X msg 182 304 5500;
#X obj 374 230 r \$0-zoom;
#X obj 374 262 sel 0 1 2;
#X msg 374 341 text \$1Hz;
#X msg 374 284 5500;
#X msg 426 318 1375;
#X msg 217 318 2750;
#X msg 392 304 2750;
#X obj 584 240 r \$0-zoom;
#X obj 584 272 sel 0 1 2;
#X msg 584 351 text \$1Hz;
#X msg 584 294 16500;
#X msg 602 314 8250;
#X msg 636 328 4125;
#X obj 247 15 r \$0-lin;
#X obj 247 46 == 0;
#X obj 321 19 loadbang;
#X msg 321 41 1;
#X connect 0 0 10 0;
#X connect 2 0 3 0;
#X connect 2 0 21 0;
#X connect 3 0 1 1;
#X connect 5 0 4 2;
#X connect 6 0 11 0;
#X connect 6 0 5 0;
#X connect 7 0 4 0;
#X connect 8 0 7 0;
#X connect 9 0 8 0;
#X connect 10 0 1 0;
#X connect 11 0 4 1;
#X connect 12 0 24 0;
#X connect 14 0 15 0;
#X connect 14 0 35 0;
#X connect 15 0 13 1;
#X connect 17 0 22 0;
#X connect 17 0 23 0;
#X connect 18 0 16 0;
#X connect 19 0 18 0;
#X connect 20 0 19 0;
#X connect 21 0 1 0;
#X connect 22 0 16 1;
#X connect 23 0 16 2;
#X connect 24 0 13 0;
#X connect 25 0 34 0;
#X connect 27 0 28 0;
#X connect 27 0 36 0;
#X connect 28 0 26 1;
#X connect 30 0 37 0;
#X connect 30 0 38 0;
#X connect 31 0 29 0;
#X connect 32 0 31 0;
#X connect 33 0 32 0;
#X connect 34 0 26 0;
#X connect 35 0 13 0;
#X connect 36 0 26 0;
#X connect 37 0 29 1;
#X connect 38 0 29 2;
#X connect 39 0 40 0;
#X connect 40 0 42 0;
#X connect 40 1 43 0;
#X connect 40 2 49 0;
#X connect 41 0 1 0;
#X connect 42 0 41 0;
#X connect 43 0 41 0;
#X connect 44 0 45 0;
#X connect 45 0 47 0;
#X connect 45 1 50 0;
#X connect 45 2 48 0;
#X connect 46 0 13 0;
#X connect 47 0 46 0;
#X connect 48 0 46 0;
#X connect 49 0 41 0;
#X connect 50 0 46 0;
#X connect 51 0 52 0;
#X connect 52 0 54 0;
#X connect 52 1 55 0;
#X connect 52 2 56 0;
#X connect 53 0 26 0;
#X connect 54 0 53 0;
#X connect 55 0 53 0;
#X connect 56 0 53 0;
#X connect 58 0 0 0;
#X connect 58 0 12 0;
#X connect 58 0 25 0;
#X connect 58 0 9 0;
#X connect 58 0 20 0;
#X connect 58 0 33 0;
#X connect 59 0 60 0;
#X connect 60 0 58 0;
#X restore 30 241 pd draw textlin;
#N canvas 420 94 860 662 draw 0;
#X obj 114 87 gemhead 56;
#X obj 114 394 text2d;
#X obj 132 145 loadbang;
#X msg 147 170 11;
#X obj 114 597 curve 2;
#X obj 133 525 loadbang;
#X obj 114 496 alpha 1;
#X obj 114 469 colorRGB 1 1 1 0.5;
#X obj 114 432 gemhead 56;
#X obj 324 87 gemhead 56;
#X obj 324 394 text2d;
#X obj 342 145 loadbang;
#X msg 357 170 11;
#X obj 324 597 curve 2;
#X obj 343 525 loadbang;
#X obj 324 496 alpha 1;
#X obj 324 469 colorRGB 1 1 1 0.5;
#X obj 324 432 gemhead 56;
#X msg 132 193 text 11000Hz;
#X obj 534 87 gemhead 56;
#X obj 534 394 text2d;
#X obj 552 145 loadbang;
#X msg 567 170 11;
#X obj 534 597 curve 2;
#X obj 553 525 loadbang;
#X obj 534 496 alpha 1;
#X obj 534 469 colorRGB 1 1 1 0.5;
#X obj 534 432 gemhead 56;
#X msg 342 193 text 5500Hz;
#X msg 552 193 text 16500Hz;
#X obj 164 230 r \$0-zoom;
#X obj 164 262 sel 0 1 2;
#X msg 164 341 text \$1Hz;
#X obj 374 230 r \$0-zoom;
#X obj 374 262 sel 0 1 2;
#X msg 374 341 text \$1Hz;
#X obj 584 240 r \$0-zoom;
#X obj 584 272 sel 0 1 2;
#X msg 584 351 text \$1Hz;
#X obj 247 15 r \$0-lin;
#X obj 247 46 == 1;
#X msg 553 566 -6 3.2 0;
#X msg 611 568 6 3.2 0;
#X obj 534 112 translateXYZ -5.5 3.35 0;
#X msg 584 294 10000;
#X msg 602 314 5000;
#X msg 636 328 2500;
#X msg 207 567 6 0.85 0;
#X obj 114 113 translateXYZ -5.5 1 0;
#X msg 133 566 -6 0.85 0;
#X msg 164 284 1000;
#X msg 182 304 500;
#X msg 217 318 250;
#X msg 343 566 -6 -1.45 0;
#X msg 401 568 6 -1.45 0;
#X obj 324 112 translateXYZ -5.5 -1.3 0;
#X msg 374 284 100;
#X msg 392 304 50;
#X msg 426 318 25;
#X obj 321 19 loadbang;
#X msg 321 41 0;
#X connect 0 0 48 0;
#X connect 2 0 3 0;
#X connect 2 0 18 0;
#X connect 3 0 1 1;
#X connect 5 0 49 0;
#X connect 5 0 47 0;
#X connect 6 0 4 0;
#X connect 7 0 6 0;
#X connect 8 0 7 0;
#X connect 9 0 55 0;
#X connect 11 0 12 0;
#X connect 11 0 28 0;
#X connect 12 0 10 1;
#X connect 14 0 53 0;
#X connect 14 0 54 0;
#X connect 15 0 13 0;
#X connect 16 0 15 0;
#X connect 17 0 16 0;
#X connect 18 0 1 0;
#X connect 19 0 43 0;
#X connect 21 0 22 0;
#X connect 21 0 29 0;
#X connect 22 0 20 1;
#X connect 24 0 41 0;
#X connect 24 0 42 0;
#X connect 25 0 23 0;
#X connect 26 0 25 0;
#X connect 27 0 26 0;
#X connect 28 0 10 0;
#X connect 29 0 20 0;
#X connect 30 0 31 0;
#X connect 31 0 50 0;
#X connect 31 1 51 0;
#X connect 31 2 52 0;
#X connect 32 0 1 0;
#X connect 33 0 34 0;
#X connect 34 0 56 0;
#X connect 34 1 57 0;
#X connect 34 2 58 0;
#X connect 35 0 10 0;
#X connect 36 0 37 0;
#X connect 37 0 44 0;
#X connect 37 1 45 0;
#X connect 37 2 46 0;
#X connect 38 0 20 0;
#X connect 40 0 0 0;
#X connect 40 0 9 0;
#X connect 40 0 19 0;
#X connect 40 0 8 0;
#X connect 40 0 17 0;
#X connect 40 0 27 0;
#X connect 41 0 23 1;
#X connect 42 0 23 2;
#X connect 43 0 20 0;
#X connect 44 0 38 0;
#X connect 45 0 38 0;
#X connect 46 0 38 0;
#X connect 47 0 4 2;
#X connect 48 0 1 0;
#X connect 49 0 4 1;
#X connect 50 0 32 0;
#X connect 51 0 32 0;
#X connect 52 0 32 0;
#X connect 53 0 13 1;
#X connect 54 0 13 2;
#X connect 55 0 10 0;
#X connect 56 0 35 0;
#X connect 57 0 35 0;
#X connect 58 0 35 0;
#X connect 59 0 60 0;
#X connect 60 0 40 0;
#X restore 30 261 pd draw textlog;
#X text 161 79 x speed;
#X obj 182 165 cnv 15 15 15 empty \$0-fe_2 22050Hz 0 8 0 10 -262144
-1 0;
#X obj 182 180 cnv 15 15 15 empty \$0-fe_4 11025Hz 0 8 0 10 -262144
-1 0;
#X obj 182 196 cnv 15 15 15 empty \$0-fe_8 5512Hz 0 8 0 10 -262144
-1 0;
#X connect 1 0 2 0;
#X connect 5 0 4 0;
#X restore -168 274 pd spectrogram__;
#N canvas 124 150 1022 593 freq_fine____ 0;
#X obj 82 40 hsl 256 15 0 127 0 0 empty empty empty -2 -8 0 10 -262144
-1 -1 9550 1;
#X obj 79 261 s freq_fine;
#X obj 79 68 / 127;
#X obj 168 348 translateXYZ 0 0 0.001;
#X obj 79 134 - 0.5;
#X obj 230 257 * 8;
#X obj 79 173 * 1.92e+06;
#X obj 79 18 r fad_freq_fine;
#X floatatom 99 202 10 0 0 0 - - -;
#X obj 79 236 * -1;
#X obj 230 315 line;
#X obj 381 311 s in_fad_freq_fine;
#X obj 381 224 makefilename %.0d;
#X obj 381 194 / 1000;
#X msg 381 262 label f::\$1kHz;
#X obj 188 175 r gemhead53;
#X obj 168 421 rectangle 0.1 8;
#X obj 168 312 alpha 1;
#X msg 230 295 \$1 10;
#X obj 410 81 t b f;
#X obj 381 112 +;
#X obj 381 92 f;
#X obj 381 58 * 1e+06;
#X obj 381 16 r freq_prin;
#X obj 381 142 s freq_finale;
#X obj 256 273 s pos_freq_fine;
#X obj 170 228 loadbang;
#X msg 170 250 0;
#X obj 169 272 gemhead;
#X obj 188 197 t b;
#X floatatom 135 84 5 0 0 0 - - -;
#X obj 597 78 hsl 256 15 0 127 0 0 empty empty empty -2 -8 0 10 -262144
-1 -1 12901 1;
#X obj 594 106 / 127;
#X obj 683 386 translateXYZ 0 0 0.001;
#X obj 594 172 - 0.5;
#X obj 745 295 * 8;
#X obj 594 211 * 1.92e+06;
#X floatatom 614 240 10 0 0 0 - - -;
#X obj 594 274 * -1;
#X obj 745 353 line;
#X obj 703 213 r gemhead53;
#X obj 683 459 rectangle 0.1 8;
#X obj 683 350 alpha 1;
#X msg 745 333 \$1 10;
#X obj 685 266 loadbang;
#X msg 685 288 0;
#X obj 684 310 gemhead;
#X obj 703 235 t b;
#X floatatom 650 122 5 0 0 0 - - -;
#X obj 594 56 r fad_freq_fine2;
#X obj 594 299 s freq_fine2;
#X obj 771 311 s pos_freq_fine2;
#X msg 337 379 draw line;
#X msg 821 409 draw line;
#X obj 683 408 colorRGB 1 1 1 0.8;
#X obj 168 370 colorRGB 1 1 1 0.8;
#X obj 337 347 loadbang;
#X obj 819 378 loadbang;
#X connect 0 0 2 0;
#X connect 0 0 30 0;
#X connect 2 0 4 0;
#X connect 3 0 55 0;
#X connect 4 0 5 0;
#X connect 4 0 6 0;
#X connect 5 0 18 0;
#X connect 5 0 25 0;
#X connect 6 0 8 0;
#X connect 6 0 9 0;
#X connect 6 0 13 0;
#X connect 6 0 19 0;
#X connect 7 0 0 0;
#X connect 9 0 1 0;
#X connect 10 0 3 1;
#X connect 12 0 14 0;
#X connect 13 0 12 0;
#X connect 14 0 11 0;
#X connect 15 0 29 0;
#X connect 17 0 3 0;
#X connect 18 0 10 0;
#X connect 19 0 21 0;
#X connect 19 1 20 1;
#X connect 20 0 24 0;
#X connect 21 0 20 0;
#X connect 22 0 21 0;
#X connect 23 0 22 0;
#X connect 26 0 27 0;
#X connect 27 0 28 0;
#X connect 28 0 17 0;
#X connect 29 0 28 0;
#X connect 31 0 32 0;
#X connect 31 0 48 0;
#X connect 32 0 34 0;
#X connect 33 0 54 0;
#X connect 34 0 35 0;
#X connect 34 0 36 0;
#X connect 35 0 43 0;
#X connect 35 0 51 0;
#X connect 36 0 37 0;
#X connect 36 0 38 0;
#X connect 38 0 50 0;
#X connect 39 0 33 1;
#X connect 40 0 47 0;
#X connect 42 0 33 0;
#X connect 43 0 39 0;
#X connect 44 0 45 0;
#X connect 45 0 46 0;
#X connect 46 0 42 0;
#X connect 47 0 46 0;
#X connect 49 0 31 0;
#X connect 52 0 16 0;
#X connect 53 0 41 0;
#X connect 54 0 41 0;
#X connect 55 0 16 0;
#X connect 56 0 52 0;
#X connect 57 0 53 0;
#X restore -168 236 pd freq_fine____;
#N canvas 374 151 862 748 draw_line____ 0;
#X obj 234 110 GEMglEnd;
#X obj 295 83 GEMglShadeModel GL_SMOOTH;
#X obj 234 133 GEMglShadeModel GL_FLAT;
#X obj 253 274 gemlist;
#X obj 253 222 until;
#X obj 253 589 GEMglColor3f 0 1 0;
#X obj 308 287 f;
#X obj 340 273 + 1;
#X msg 323 245 0;
#X obj 295 105 GEMglBegin GL_QUAD_STRIP;
#X obj 405 574 r \$0-speed;
#X obj 234 49 t a b a a;
#X obj 253 167 t b b b;
#X obj 682 186 f;
#X floatatom 682 207 10 0 0 0 - - -;
#X obj 754 186 f;
#X floatatom 754 208 10 0 0 0 - - -;
#X obj 624 698 f;
#X floatatom 624 719 10 0 0 0 - - -;
#X obj 709 696 f;
#X floatatom 709 717 10 0 0 0 - - -;
#X obj 624 676 min 10;
#X obj 709 674 max -1e+07;
#X obj 253 614 GEMglVertex3f 0 -4 0;
#X obj 253 640 GEMglVertex3f 0 -4 0;
#X obj 253 198 f 2048;
#X obj 308 340 tabread fft;
#X obj 682 164 min 10;
#X obj 754 164 max -1e+07;
#X obj 385 340 tabread x_fft;
#X obj 470 339 tabread x_fft;
#X obj 713 100 f;
#X floatatom 713 131 10 0 0 0 - - -;
#X obj 766 87 f;
#X floatatom 766 109 10 0 0 0 - - -;
#X obj 713 68 min 10;
#X obj 766 65 max -1e+07;
#X obj 405 632 - 3.98;
#X obj 405 605 / 1000;
#X obj 234 21 r gemhead51;
#X msg 428 672 -3;
#X obj 253 667 GEMglVertex3f 0 -3.98 0;
#X obj 253 693 GEMglVertex3f 0 -3.98 0;
#N canvas 52 87 468 341 init 0;
#X obj 32 31 loadbang;
#X msg 32 83 2048;
#X obj 32 105 until;
#X obj 32 53 t b b;
#X obj 32 127 f;
#X obj 63 126 + 1;
#X msg 70 101 0;
#X obj 32 149 t f f;
#X obj 32 295 tabwrite x_fft;
#X obj 32 212 - 0.5;
#X obj 75 56 bng 15 250 50 0 empty empty empty 17 7 0 10 -262144 -1
-1;
#X obj 31 176 / 2048;
#X obj 116 205 * 8;
#X obj 116 227 * 8;
#X obj 116 256 / 3;
#X floatatom 116 136 5 0 0 0 - - -;
#X obj 116 158 t b f;
#X obj 32 256 * 8;
#X connect 0 0 3 0;
#X connect 1 0 2 0;
#X connect 2 0 4 0;
#X connect 3 0 1 0;
#X connect 3 1 6 0;
#X connect 4 0 5 0;
#X connect 4 0 7 0;
#X connect 5 0 4 1;
#X connect 6 0 4 1;
#X connect 7 0 11 0;
#X connect 7 1 8 1;
#X connect 9 0 17 0;
#X connect 10 0 3 0;
#X connect 11 0 9 0;
#X connect 12 0 13 0;
#X connect 13 0 14 0;
#X connect 15 0 16 0;
#X connect 16 0 3 0;
#X connect 17 0 8 0;
#X restore 511 91 pd init xfft;
#X obj 511 111 table x_fft 2048;
#X msg 348 295 2047 \$1;
#X obj 348 317 -;
#N canvas 52 97 959 689 recompute 0;
#X obj 508 188 t b b b b;
#X obj 508 163 r sync_fft;
#X obj 484 491 tab_copy \$0-fftdb \$0-fftfin;
#X obj 484 458 pack 32 0 32;
#X obj 542 305 tab_add_scalar fft fft;
#X obj 528 380 tab_mul_scalar fft fft;
#X msg 528 351 0.1;
#X msg 542 282 5;
#X connect 0 1 6 0;
#X connect 0 2 7 0;
#X connect 1 0 0 0;
#X connect 3 0 2 0;
#X connect 6 0 5 0;
#X connect 7 0 4 0;
#X restore 511 130 pd recompute fft;
#X obj 308 490 * 3;
#X obj 503 374 loadbang;
#X obj 503 436 metro 45000;
#X obj 503 458 t b b;
#X obj 503 484 tgl 15 0 empty empty empty 17 7 0 10 -262144 -1 -1 0
1;
#X obj 502 505 * 0.5;
#X obj 502 527 + 3;
#X msg 502 589 \$1 45000;
#X obj 502 611 line;
#X obj 542 483 random 45000;
#X obj 542 505 + 45000;
#X floatatom 533 711 5 0 0 0 - - -;
#X obj 503 396 t b b;
#X msg 527 417 3;
#X obj 502 549 f;
#X obj 636 319 loadbang;
#X obj 636 381 metro 25000;
#X obj 711 348 + 15000;
#X obj 682 292 bng 15 250 50 0 empty empty empty 17 7 0 10 -262144
-1 -1;
#X msg 593 414 0;
#X msg 470 231 seed 315;
#X obj 470 253 random 1000;
#X obj 470 275 / 1000;
#X obj 310 378 +;
#X obj 253 247 t b b b;
#X floatatom 624 617 5 0 0 0 - - -;
#X obj 308 459 pow 3.5;
#X obj 631 580 line;
#X obj 470 297 * 0.08;
#X msg 723 460 0.08 10000;
#X obj 711 326 random 40000;
#X msg 575 627 \$1 10000;
#X obj 639 493 + 0.08;
#X obj 639 449 random 100;
#X obj 640 518 t f b;
#X obj 640 540 pack f f;
#X obj 719 526 random 10000;
#X obj 719 570 + 5000;
#X obj 639 471 / 700;
#X msg 686 415 100;
#X connect 0 0 2 0;
#X connect 1 0 9 0;
#X connect 3 0 5 0;
#X connect 4 0 72 0;
#X connect 5 0 23 0;
#X connect 6 0 7 0;
#X connect 6 0 29 0;
#X connect 6 0 45 0;
#X connect 6 0 26 0;
#X connect 7 0 6 1;
#X connect 7 0 30 0;
#X connect 8 0 6 1;
#X connect 10 0 38 0;
#X connect 11 0 0 0;
#X connect 11 1 12 0;
#X connect 11 2 1 0;
#X connect 11 3 3 1;
#X connect 12 0 25 0;
#X connect 12 1 68 0;
#X connect 12 2 8 0;
#X connect 13 0 14 0;
#X connect 13 0 27 1;
#X connect 15 0 16 0;
#X connect 15 0 28 1;
#X connect 17 0 18 0;
#X connect 17 0 21 1;
#X connect 19 0 20 0;
#X connect 19 0 22 1;
#X connect 21 0 17 0;
#X connect 22 0 19 0;
#X connect 23 0 24 0;
#X connect 24 0 41 0;
#X connect 25 0 4 0;
#X connect 26 0 71 0;
#X connect 27 0 13 0;
#X connect 28 0 15 0;
#X connect 29 0 23 1;
#X connect 29 0 41 1;
#X connect 30 0 24 1;
#X connect 30 0 42 1;
#X connect 31 0 32 0;
#X connect 31 0 35 1;
#X connect 33 0 34 0;
#X connect 33 0 36 1;
#X connect 35 0 31 0;
#X connect 36 0 33 0;
#X connect 37 0 41 2;
#X connect 37 0 42 2;
#X connect 38 0 37 0;
#X connect 39 0 11 0;
#X connect 40 0 41 2;
#X connect 40 0 42 2;
#X connect 41 0 42 0;
#X connect 45 0 46 0;
#X connect 48 0 5 1;
#X connect 48 0 5 2;
#X connect 48 0 5 3;
#X connect 49 0 60 0;
#X connect 50 0 51 0;
#X connect 51 0 52 0;
#X connect 51 1 57 0;
#X connect 52 0 53 0;
#X connect 53 0 54 0;
#X connect 54 0 62 0;
#X connect 55 0 56 0;
#X connect 56 0 59 0;
#X connect 56 0 48 1;
#X connect 57 0 58 0;
#X connect 58 0 50 1;
#X connect 60 0 50 0;
#X connect 60 1 61 0;
#X connect 61 0 56 0;
#X connect 62 0 55 0;
#X connect 63 0 64 0;
#X connect 64 0 78 0;
#X connect 64 0 81 0;
#X connect 65 0 64 1;
#X connect 66 0 64 0;
#X connect 68 0 69 0;
#X connect 69 0 70 0;
#X connect 70 0 76 0;
#X connect 71 0 74 0;
#X connect 72 0 3 0;
#X connect 72 1 6 0;
#X connect 72 2 69 0;
#X connect 74 0 48 0;
#X connect 75 0 73 0;
#X connect 75 0 76 1;
#X connect 76 0 71 1;
#X connect 77 0 75 0;
#X connect 78 0 65 0;
#X connect 79 0 75 0;
#X connect 80 0 82 0;
#X connect 81 0 86 0;
#X connect 82 0 83 0;
#X connect 82 1 84 0;
#X connect 83 0 75 0;
#X connect 84 0 85 0;
#X connect 85 0 83 1;
#X connect 86 0 80 0;
#X connect 87 0 86 0;
#X restore -168 255 pd draw_line____;
#N canvas 355 277 899 610 multiscreen__ 0;
#X obj 39 241 gemhead;
#X obj 39 308 gemframebuffer;
#X obj 55 265 loadbang;
#X msg 183 284 rectangle 1;
#X obj 183 265 loadbang;
#X obj 178 332 s nfp_fb;
#X msg 55 285 dimen 2048 768;
#X obj 171 421 s gemhead50;
#X obj 156 472 s gemhead51;
#X obj 55 521 s gemhead52;
#X obj 38 551 s gemhead53;
#X obj 313 69 nfp_curved_wall 1;
#X obj 611 69 nfp_curved_wall 2;
#X obj 45 71 load_save;
#X obj 96 53 bng 15 250 50 0 empty empty empty 17 7 0 10 -262144 -1
-1;
#X obj 45 53 bng 15 250 50 0 empty empty empty 17 7 0 10 -262144 -1
-1;
#X obj 45 29 loadbang;
#X text 62 53 load;
#X text 114 52 save;
#X obj 39 341 translateXYZ 0 0 -4;
#X obj 38 369 scaleXYZ 1 1 1;
#X obj 39 404 t a a a a a;
#X obj 142 497 s gemhead511;
#X obj 168 391 separator;
#X obj 143 442 separator;
#X obj 70 449 separator;
#X obj 56 493 separator;
#X obj 31 471 separator;
#X connect 0 0 1 0;
#X connect 1 0 19 0;
#X connect 1 1 5 0;
#X connect 2 0 6 0;
#X connect 3 0 1 0;
#X connect 4 0 3 0;
#X connect 6 0 1 0;
#X connect 14 0 13 1;
#X connect 15 0 13 0;
#X connect 16 0 15 0;
#X connect 19 0 20 0;
#X connect 20 0 21 0;
#X connect 21 0 27 0;
#X connect 21 1 26 0;
#X connect 21 2 25 0;
#X connect 21 3 24 0;
#X connect 21 4 23 0;
#X connect 23 0 7 0;
#X connect 24 0 8 0;
#X connect 25 0 22 0;
#X connect 26 0 9 0;
#X connect 27 0 10 0;
#X restore -168 295 pd multiscreen__;
#N canvas 87 221 1295 678 sequenceur___ 0;
#X obj 183 150 dac~;
#X obj 234 22 r~ out1;
#X obj 285 22 r~ out2;
#X obj 335 22 r~ out3;
#X obj 386 22 r~ out4;
#X obj 436 22 r~ out5;
#X obj 183 22 r~ out0;
#X obj 120 193 loadbang;
#X obj 120 215 metro 20000;
#X obj 176 280 + 20000;
#X obj 120 237 t b b b;
#X obj 120 553 s fad_freq_fine;
#X msg 134 410 13.5;
#X msg 150 429 34.5;
#X msg 164 393 46.33;
#X msg 178 415 52.3;
#X obj 418 178 loadbang;
#X obj 474 288 + 20000;
#X obj 418 222 t b b b;
#X obj 417 535 s fad_freq_fine2;
#X obj 687 134 dac~;
#X obj 701 19 r~ outr0;
#X obj 755 19 r~ outr1;
#X obj 809 19 r~ outr2;
#X obj 863 19 r~ outr3;
#X obj 917 19 r~ outr4;
#X obj 971 19 r~ outr5;
#X obj 530 161 loadbang;
#X msg 530 183 seed 12354;
#X msg 562 203 seed 1254;
#X floatatom 220 314 5 0 0 0 - - -;
#X floatatom 489 312 5 0 0 0 - - -;
#X obj 418 200 metro 25300;
#X obj 480 158 bng 15 250 50 0 empty empty empty 17 7 0 10 -262144
-1 -1;
#X obj 232 213 loadbang;
#X msg 232 234 seed 212;
#X msg 264 255 seed 789;
#X floatatom 527 290 5 0 0 0 - - -;
#X floatatom 230 287 5 0 0 0 - - -;
#X obj 952 246 loadbang;
#X obj 948 452 dac~;
#X msg 952 269 open /home/uchronies/radiographie/data/antenne3.wav
\, start;
#X obj 952 307 readsf~;
#X obj 1110 457 env~;
#X floatatom 1110 479 5 0 0 0 - - -;
#X obj 184 115 +~;
#X obj 688 105 +~;
#X obj 277 61 r~ out6;
#X obj 325 62 r~ out7;
#X obj 375 62 r~ out8;
#X obj 425 62 r~ out9;
#X obj 764 55 r~ outr6;
#X obj 819 55 r~ outr7;
#X obj 873 55 r~ outr8;
#X obj 927 55 r~ outr9;
#X obj 417 503 line3;
#X obj 120 521 line3;
#X obj 484 177 tgl 15 0 empty empty empty 17 7 0 10 -262144 -1 -1 0
1;
#X msg 120 388 5.62;
#X msg 194 434 64.25;
#X obj 418 306 + 5;
#X obj 285 365 random 3000;
#X obj 285 389 + 3000;
#X obj 117 499 pack f f;
#X obj 116 467 f;
#X msg 434 382 13.5;
#X msg 450 401 34.5;
#X msg 464 365 46.33;
#X msg 478 387 52.3;
#X msg 420 360 5.62;
#X obj 420 331 sel 0 1 2 3 4 5 6 7 8 9;
#X msg 494 406 64.25;
#X msg 557 411 117;
#X msg 539 394 104;
#X msg 527 370 83.28;
#X msg 506 352 74.63;
#X obj 620 347 random 3000;
#X obj 620 371 + 3000;
#X obj 417 471 pack f f;
#X obj 416 439 f;
#X obj 242 480 change;
#X obj 242 502 t b b;
#X obj 271 526 delay 200;
#X msg 269 548 0;
#X msg 242 565 1;
#X obj 242 593 s moving;
#X obj 570 471 change;
#X obj 570 493 t b b;
#X obj 599 517 delay 200;
#X msg 597 539 0;
#X msg 570 556 1;
#X obj 1055 291 r moving;
#X obj 570 584 s moving2;
#X msg 1055 354 \$1 20;
#X obj 1055 376 line~;
#X obj 949 413 *~;
#X msg 1113 355 \$1 20;
#X obj 1113 377 line~;
#X obj 1113 292 r moving2;
#X obj 474 266 random 45000;
#X obj 176 258 random 35000;
#X obj 1068 310 tgl 15 0 empty empty empty 17 7 0 10 -262144 -1 -1
1 1;
#X obj 1120 313 tgl 15 0 empty empty empty 17 7 0 10 -262144 -1 -1
1 1;
#X obj 1055 333 * 0.2;
#X obj 1113 334 * 0.2;
#X obj 120 359 sel 0 1 2 3 4 5;
#X obj 120 296 random 7;
#X obj 229 379 t b;
#X msg 229 403 22;
#X obj 260 425 t b;
#X obj 258 453 delay 5000;
#X obj 418 284 random 6;
#X obj 652 404 t b;
#X obj 683 450 t b;
#X msg 652 428 92;
#X obj 681 478 delay 7000;
#X obj 1014 468 *~;
#X obj 863 374 line~;
#X obj 871 212 abs;
#X floatatom 916 316 5 0 0 0 - - -;
#X msg 863 304 1 \$1;
#X obj 863 326 -;
#X msg 911 270 0 100;
#X obj 863 396 *~;
#X msg 863 351 \$1 50;
#X obj 863 238 moses 0.2;
#X obj 864 424 *~;
#X obj 871 189 - 92;
#X obj 871 163 r pos_freq_fine2;
#X obj 748 358 line~;
#X obj 756 196 abs;
#X floatatom 801 300 5 0 0 0 - - -;
#X msg 748 288 1 \$1;
#X obj 748 310 -;
#X msg 796 254 0 100;
#X obj 748 380 *~;
#X msg 748 335 \$1 50;
#X obj 748 222 moses 0.2;
#X obj 749 408 *~;
#X obj 756 173 - 92;
#X obj 756 147 r pos_freq_fine2;
#X obj 863 270 * 1;
#X obj 748 254 * 1;
#X obj 1055 398 +~ 0.2;
#X obj 873 77 *~ 0.8;
#X connect 1 0 45 0;
#X connect 2 0 45 0;
#X connect 3 0 45 0;
#X connect 4 0 45 0;
#X connect 5 0 45 0;
#X connect 6 0 45 0;
#X connect 7 0 8 0;
#X connect 8 0 10 0;
#X connect 9 0 8 1;
#X connect 9 0 38 0;
#X connect 10 0 106 0;
#X connect 10 1 61 0;
#X connect 10 2 100 0;
#X connect 12 0 64 0;
#X connect 13 0 64 0;
#X connect 14 0 64 0;
#X connect 15 0 64 0;
#X connect 16 0 32 0;
#X connect 17 0 32 1;
#X connect 17 0 37 0;
#X connect 18 0 111 0;
#X connect 18 1 76 0;
#X connect 18 2 99 0;
#X connect 21 0 46 0;
#X connect 22 0 46 0;
#X connect 23 0 46 0;
#X connect 24 0 46 0;
#X connect 25 0 46 0;
#X connect 26 0 46 0;
#X connect 27 0 28 0;
#X connect 27 0 29 0;
#X connect 28 0 99 0;
#X connect 29 0 111 0;
#X connect 32 0 18 0;
#X connect 33 0 32 0;
#X connect 34 0 35 0;
#X connect 34 0 36 0;
#X connect 35 0 100 0;
#X connect 36 0 106 0;
#X connect 39 0 41 0;
#X connect 41 0 42 0;
#X connect 42 0 95 0;
#X connect 42 0 126 1;
#X connect 42 0 138 1;
#X connect 42 1 41 0;
#X connect 43 0 44 0;
#X connect 45 0 0 0;
#X connect 46 0 20 1;
#X connect 47 0 45 0;
#X connect 48 0 45 0;
#X connect 49 0 45 0;
#X connect 50 0 45 0;
#X connect 51 0 46 0;
#X connect 52 0 46 0;
#X connect 53 0 144 0;
#X connect 54 0 46 0;
#X connect 55 0 19 0;
#X connect 55 0 86 0;
#X connect 56 0 11 0;
#X connect 56 0 80 0;
#X connect 57 0 32 0;
#X connect 58 0 64 0;
#X connect 59 0 64 0;
#X connect 60 0 70 0;
#X connect 61 0 62 0;
#X connect 62 0 63 1;
#X connect 63 0 56 0;
#X connect 64 0 63 0;
#X connect 65 0 79 0;
#X connect 66 0 79 0;
#X connect 67 0 79 0;
#X connect 68 0 79 0;
#X connect 69 0 79 0;
#X connect 70 0 69 0;
#X connect 70 1 65 0;
#X connect 70 2 66 0;
#X connect 70 3 67 0;
#X connect 70 4 68 0;
#X connect 70 5 71 0;
#X connect 70 6 75 0;
#X connect 70 7 74 0;
#X connect 70 8 73 0;
#X connect 70 9 72 0;
#X connect 70 10 112 0;
#X connect 71 0 79 0;
#X connect 72 0 79 0;
#X connect 73 0 79 0;
#X connect 74 0 79 0;
#X connect 75 0 79 0;
#X connect 76 0 77 0;
#X connect 77 0 78 1;
#X connect 78 0 55 0;
#X connect 79 0 78 0;
#X connect 80 0 81 0;
#X connect 81 0 84 0;
#X connect 81 1 82 0;
#X connect 82 0 83 0;
#X connect 83 0 85 0;
#X connect 84 0 85 0;
#X connect 86 0 87 0;
#X connect 87 0 90 0;
#X connect 87 1 88 0;
#X connect 88 0 89 0;
#X connect 89 0 92 0;
#X connect 90 0 92 0;
#X connect 91 0 101 0;
#X connect 91 0 103 0;
#X connect 93 0 94 0;
#X connect 94 0 143 0;
#X connect 95 0 40 0;
#X connect 95 0 40 1;
#X connect 95 0 43 0;
#X connect 96 0 97 0;
#X connect 97 0 143 0;
#X connect 98 0 102 0;
#X connect 98 0 104 0;
#X connect 99 0 17 0;
#X connect 100 0 9 0;
#X connect 103 0 93 0;
#X connect 104 0 96 0;
#X connect 105 0 58 0;
#X connect 105 1 12 0;
#X connect 105 2 13 0;
#X connect 105 3 14 0;
#X connect 105 4 15 0;
#X connect 105 5 59 0;
#X connect 105 6 107 0;
#X connect 106 0 30 0;
#X connect 106 0 105 0;
#X connect 107 0 108 0;
#X connect 108 0 64 0;
#X connect 108 0 109 0;
#X connect 109 0 110 0;
#X connect 110 0 8 0;
#X connect 111 0 31 0;
#X connect 111 0 60 0;
#X connect 112 0 114 0;
#X connect 113 0 115 0;
#X connect 114 0 113 0;
#X connect 114 0 79 0;
#X connect 115 0 32 0;
#X connect 117 0 123 0;
#X connect 117 0 123 1;
#X connect 118 0 125 0;
#X connect 120 0 121 0;
#X connect 121 0 124 0;
#X connect 122 0 117 0;
#X connect 123 0 126 0;
#X connect 124 0 117 0;
#X connect 125 0 141 0;
#X connect 125 1 122 0;
#X connect 126 0 40 1;
#X connect 127 0 118 0;
#X connect 128 0 127 0;
#X connect 129 0 135 0;
#X connect 129 0 135 1;
#X connect 130 0 137 0;
#X connect 132 0 133 0;
#X connect 133 0 136 0;
#X connect 134 0 129 0;
#X connect 135 0 138 0;
#X connect 136 0 129 0;
#X connect 137 0 142 0;
#X connect 137 1 134 0;
#X connect 138 0 40 0;
#X connect 139 0 130 0;
#X connect 140 0 139 0;
#X connect 141 0 119 0;
#X connect 141 0 120 0;
#X connect 142 0 131 0;
#X connect 142 0 132 0;
#X connect 143 0 95 1;
#X connect 144 0 46 0;
#X restore -168 336 pd sequenceur___;
#N canvas 52 92 450 300 cpu__________ 0;
#X obj 320 156 cputime;
#X obj 320 16 loadbang;
#X obj 320 100 metro 1000;
#X msg 320 44 1;
#X floatatom 320 72 0 0 0 0 - - -;
#X obj 320 128 t b b;
#X obj 320 216 * 0.1;
#X obj 320 185 int;
#X obj 317 249 outlet;
#X connect 0 0 7 0;
#X connect 1 0 3 0;
#X connect 2 0 5 0;
#X connect 3 0 4 0;
#X connect 4 0 2 0;
#X connect 5 0 0 0;
#X connect 5 1 0 1;
#X connect 6 0 8 0;
#X connect 7 0 6 0;
#X restore -168 97 pd cpu__________;
#N canvas 655 375 704 316 gemwin_______ 0;
#X obj 30 180 gemwin;
#X msg 30 96 0 \, destroy;
#X obj 30 69 sel 0 1;
#X obj 30 29 inlet;
#X msg 89 164 reset \, FSAA 4 \, border 0 \, offset 1440 0 \, dimen
2048 768 \, create \, 1 \, frame 30;
#X msg 85 61 reset \, FSAA 4 \, dimen 800 300 \, create \, 1 \, frame
30;
#X msg 76 241 reset \, FSAA 4 \, dimen 1120 420 \, create \, 1 \, frame
30;
#X obj 147 15 key;
#X obj 147 36 sel 27;
#X obj 226 14 gemkeyboard;
#X obj 226 36 sel 9;
#X msg 204 91 frame 25;
#X obj 531 79 gemhead 53;
#X obj 531 141 pix_write;
#X msg 547 107 file capture 99;
#X obj 598 136 bng 15 250 50 0 empty empty empty 17 7 0 10 -262144
-1 -1;
#X msg 50 125 reset \, FSAA 4 \, offset 1440 0 \, border 0 \, dimen
2048 768 \, cursor 0 \, create \, 1 \, frame 25;
#X connect 1 0 0 0;
#X connect 2 0 1 0;
#X connect 2 1 16 0;
#X connect 3 0 2 0;
#X connect 4 0 0 0;
#X connect 5 0 0 0;
#X connect 7 0 8 0;
#X connect 8 0 1 0;
#X connect 9 0 10 0;
#X connect 10 0 1 0;
#X connect 11 0 0 0;
#X connect 12 0 13 0;
#X connect 14 0 13 0;
#X connect 15 0 13 0;
#X connect 16 0 0 0;
#X restore -169 164 pd gemwin_______;
#N canvas 369 173 901 671 gnuradio_____ 0;
#X floatatom 395 291 5 0 0 0 - - -;
#X obj 395 310 * 1e+06;
#X obj 306 607 tgl 15 0 empty empty empty 17 7 0 10 -262144 -1 -1 1
1;
#X msg 390 581 disconnect;
#X obj 306 581 net/udpsend;
#X obj 394 382 unpack f f f f;
#X msg 306 178 connect localhost 2000;
#X text 563 12 emission controle freq;
#X obj 38 47 net/udpreceive 2002;
#X obj 38 333 s fft;
#X obj 78 199 list length;
#X floatatom 78 223 5 0 0 0 - - -;
#X obj 74 72 list length;
#X floatatom 74 95 5 0 0 0 - - -;
#X obj 38 261 list prepend 0;
#X obj 99 289 t b b;
#X obj 99 314 timer;
#X floatatom 99 346 5 0 0 0 - - -;
#X obj 167 344 outlet;
#X obj 167 287 t b;
#X msg 167 310 1;
#X obj 211 294 delay 1000;
#X msg 211 315 0;
#X obj 394 453 pack f f f f;
#X obj 38 162 bytes/bytes2float 0;
#X obj 394 356 bytes/float2bytes 0;
#X obj 475 411 + 128;
#X obj 475 432 % 256;
#X obj 394 333 * -1;
#X obj 306 16 loadbang;
#X obj 394 490 spigot 0;
#X obj 306 47 delay 10;
#X obj 624 611 tgl 15 0 empty empty empty 17 7 0 10 -262144 -1 -1 1
1;
#X msg 704 587 disconnect;
#X obj 624 585 net/udpsend;
#X obj 741 383 unpack f f f f;
#X obj 740 464 pack f f f f;
#X obj 741 357 bytes/float2bytes 0;
#X obj 822 412 + 128;
#X obj 822 433 % 256;
#X obj 741 334 * -1;
#X obj 622 32 loadbang;
#X obj 740 489 spigot 0;
#X msg 623 182 connect localhost 2001;
#X obj 622 61 delay 20;
#X obj 741 301 r freq_fine;
#X obj 392 258 r freq_prin;
#X obj 306 210 t a b;
#X obj 306 69 tgl 15 0 empty empty empty 17 7 0 10 -262144 -1 -1 1
1;
#X obj 306 88 metro 500;
#X obj 366 230 delay 300;
#X obj 306 151 spigot 1;
#X obj 351 123 == 0;
#X obj 623 207 t a b;
#X obj 712 259 delay 300;
#X obj 623 81 tgl 15 0 empty empty empty 17 7 0 10 -262144 -1 -1 1
1;
#X obj 623 100 metro 500;
#X obj 623 159 spigot 1;
#X obj 668 131 == 0;
#X obj 22 291 t b a;
#X obj 29 365 s sync_fft;
#X obj 191 64 tgl 15 0 empty empty empty 17 7 0 10 -262144 -1 -1 0
1;
#X obj 191 84 metro 40;
#X connect 0 0 1 0;
#X connect 1 0 28 0;
#X connect 2 0 30 1;
#X connect 2 0 52 0;
#X connect 3 0 4 0;
#X connect 4 0 2 0;
#X connect 5 0 23 0;
#X connect 5 1 23 1;
#X connect 5 2 23 2;
#X connect 5 3 26 0;
#X connect 6 0 47 0;
#X connect 8 0 12 0;
#X connect 8 0 24 0;
#X connect 10 0 11 0;
#X connect 12 0 13 0;
#X connect 14 0 15 0;
#X connect 14 0 19 0;
#X connect 14 0 59 0;
#X connect 15 0 16 0;
#X connect 15 1 16 1;
#X connect 16 0 17 0;
#X connect 19 0 20 0;
#X connect 19 0 21 0;
#X connect 20 0 18 0;
#X connect 21 0 22 0;
#X connect 22 0 18 0;
#X connect 23 0 30 0;
#X connect 24 0 14 0;
#X connect 24 0 10 0;
#X connect 25 0 5 0;
#X connect 26 0 27 0;
#X connect 27 0 23 3;
#X connect 28 0 25 0;
#X connect 29 0 31 0;
#X connect 30 0 4 0;
#X connect 31 0 48 0;
#X connect 32 0 42 1;
#X connect 32 0 58 0;
#X connect 33 0 34 0;
#X connect 34 0 32 0;
#X connect 35 0 36 0;
#X connect 35 1 36 1;
#X connect 35 2 36 2;
#X connect 35 3 38 0;
#X connect 36 0 42 0;
#X connect 37 0 35 0;
#X connect 38 0 39 0;
#X connect 39 0 36 3;
#X connect 40 0 37 0;
#X connect 41 0 44 0;
#X connect 42 0 34 0;
#X connect 43 0 53 0;
#X connect 44 0 55 0;
#X connect 45 0 40 0;
#X connect 46 0 0 0;
#X connect 47 0 4 0;
#X connect 47 1 50 0;
#X connect 48 0 49 0;
#X connect 49 0 51 0;
#X connect 50 0 0 0;
#X connect 51 0 6 0;
#X connect 52 0 51 1;
#X connect 53 0 34 0;
#X connect 53 1 54 0;
#X connect 54 0 40 0;
#X connect 55 0 56 0;
#X connect 56 0 57 0;
#X connect 57 0 43 0;
#X connect 58 0 57 1;
#X connect 59 0 60 0;
#X connect 59 1 9 0;
#X connect 61 0 62 0;
#X restore -168 185 pd gnuradio_____;
#X connect 1 0 57 0;
#X connect 8 0 6 0;
#X connect 9 0 6 0;
#X connect 10 0 6 0;
#X connect 11 0 6 0;
#X connect 12 0 6 0;
#X connect 13 0 6 0;
#X connect 14 0 6 0;
#X connect 27 0 6 0;
#X connect 28 0 6 0;
#X connect 31 0 6 0;
#X connect 32 0 6 0;
#X connect 33 0 7 0;
#X connect 34 0 6 0;
#X connect 35 0 6 0;
#X connect 39 0 6 0;
#X connect 56 0 0 0;
#X connect 58 0 2 0;
